<svg xmlns="http://www.w3.org/2000/svg" viewBox="0 0 367.38 587.67"><defs><style>.cls-1{fill:#f2f2f3;}.cls-2{fill:#999;}.cls-3{fill:#fff;}.cls-4{fill:#231f20;}.cls-5{fill:#3d59a8;}.cls-6{fill:#101138;}</style></defs><title>Asset 4</title><g id="Layer_2" data-name="Layer 2"><g id="Layer_1-2" data-name="Layer 1"><rect class="cls-1" width="367.38" height="587.67" rx="12" ry="12"/><circle class="cls-2" cx="20.19" cy="19.33" r="5.4"/><circle class="cls-2" cx="35.19" cy="19.33" r="5.4"/><circle class="cls-2" cx="50.19" cy="19.33" r="5.4"/><rect class="cls-3" x="8.36" y="33.67" width="350.67" height="544.83" rx="11.46" ry="11.46"/><path class="cls-3" d="M201.27,33.67H82.87a13.05,13.05,0,0,0,13-13,13,13,0,0,1,13-13h66.35a13,13,0,0,1,13,13A13,13,0,0,0,201.27,33.67Z"/><path class="cls-4" d="M130.69,20.87c0,2.79-1.69,4.26-3.75,4.26s-3.63-1.65-3.63-4.1,1.59-4.25,3.75-4.25S130.69,18.48,130.69,20.87Zm-6.27.14c0,1.72.94,3.27,2.58,3.27s2.59-1.52,2.59-3.36c0-1.6-.84-3.28-2.58-3.28S124.42,19.23,124.42,21Z"/><path class="cls-4" d="M132,21.09c0-.74,0-1.34-.05-1.89h.95l.05,1h0a2.28,2.28,0,0,1,2.06-1.13c1.41,0,2.46,1.19,2.46,3,0,2.09-1.27,3.12-2.64,3.12a2,2,0,0,1-1.78-.91h0v3.15h-1Zm1,1.55a2.82,2.82,0,0,0,.05.43,1.63,1.63,0,0,0,1.58,1.23c1.12,0,1.77-.91,1.77-2.24,0-1.16-.62-2.16-1.73-2.16a1.7,1.7,0,0,0-1.6,1.31,2,2,0,0,0-.07.43Z"/><path class="cls-4" d="M140.12,17.53V19.2h1.51V20h-1.51v3.13c0,.72.2,1.13.79,1.13a2.08,2.08,0,0,0,.61-.08l0,.8a2.73,2.73,0,0,1-.94.14,1.5,1.5,0,0,1-1.14-.44,2.17,2.17,0,0,1-.4-1.51V20h-.9v-.8h.9V17.8Z"/><path class="cls-4" d="M144,17.56a.62.62,0,0,1-.67.65.63.63,0,0,1-.63-.65.64.64,0,0,1,.66-.66A.62.62,0,0,1,144,17.56ZM142.82,25V19.2h1.05V25Z"/><path class="cls-4" d="M145.63,20.77c0-.6,0-1.1,0-1.57h.92l.05.93h0a2,2,0,0,1,1.82-1.07,1.71,1.71,0,0,1,1.64,1.17h0a2.33,2.33,0,0,1,.64-.76,2,2,0,0,1,1.29-.41c.76,0,1.9.51,1.9,2.52V25h-1V21.71c0-1.11-.41-1.78-1.26-1.78a1.35,1.35,0,0,0-1.24,1,1.61,1.61,0,0,0-.09.52V25h-1V21.52c0-.92-.41-1.59-1.21-1.59A1.44,1.44,0,0,0,146.74,21a1.49,1.49,0,0,0-.08.52V25h-1Z"/><path class="cls-4" d="M156.81,17.56a.62.62,0,0,1-.67.65.63.63,0,0,1-.64-.65.65.65,0,0,1,.66-.66A.63.63,0,0,1,156.81,17.56ZM155.63,25V19.2h1.06V25Z"/><path class="cls-4" d="M157.78,24.39,160.41,21l.75-.9v0H158V19.2h4.43v.66l-2.59,3.37c-.24.32-.48.61-.75.91v0h3.4V25h-4.72Z"/><path class="cls-4" d="M164.08,22.29a1.86,1.86,0,0,0,2,2,3.8,3.8,0,0,0,1.61-.3l.18.76a4.67,4.67,0,0,1-1.93.36,2.7,2.7,0,0,1-2.86-2.93c0-1.75,1-3.13,2.73-3.13a2.47,2.47,0,0,1,2.4,2.74,4.35,4.35,0,0,1,0,.49Zm3.1-.76a1.5,1.5,0,0,0-1.47-1.71,1.76,1.76,0,0,0-1.62,1.71Z"/><path class="cls-4" d="M169.51,16.49h1.05V25h-1.05Z"/><path class="cls-4" d="M172.72,19.2,174,22.63c.14.38.28.84.37,1.18h0c.11-.34.23-.79.37-1.21l1.15-3.4H177l-1.59,4.13c-.75,2-1.27,3-2,3.64a2.9,2.9,0,0,1-1.29.68l-.27-.89a2.71,2.71,0,0,0,.93-.51,3.22,3.22,0,0,0,.89-1.18,1,1,0,0,0,.08-.25.91.91,0,0,0-.07-.28l-2.15-5.34Z"/><path class="cls-5" d="M109.11,15.94a4.66,4.66,0,0,0-1.24,2.14,4.82,4.82,0,0,1,1.19-.17l-1.35,1.35a4.4,4.4,0,0,0,.08.89L110,18a4.4,4.4,0,0,1,.81.22,1.81,1.81,0,0,1,.28-.34,2,2,0,1,1,2.89,2.88,1.87,1.87,0,0,1-.35.28,3.89,3.89,0,0,1,.22.81L111.64,24a4.45,4.45,0,0,0,.89.07l1.35-1.34a5.16,5.16,0,0,1-.16,1.18,4.58,4.58,0,0,0,2.13-1.23,4.77,4.77,0,0,0-6.74-6.75Z"/><path class="cls-5" d="M110.64,20.19a2,2,0,0,1-.2-.77l-1.22,1.23-.94.93a4.56,4.56,0,0,0,.38.59L110,20.84Z"/><path class="cls-5" d="M112.37,21.35a2,2,0,0,1-.77-.2l-.65.66-1.33,1.33a5.27,5.27,0,0,0,.59.37l.94-.93Z"/><path class="cls-6" d="M110.44,19.42a2.1,2.1,0,0,1,.32-1.21A4.88,4.88,0,0,0,110,18l-2.17,2.16A4.73,4.73,0,0,0,108,21a4.91,4.91,0,0,0,.28.62Z"/><path class="cls-6" d="M112.37,21.35l-2.16,2.16a4.91,4.91,0,0,0,.62.28,5.7,5.7,0,0,0,.81.22l2.17-2.17a4.88,4.88,0,0,0-.22-.81A2.06,2.06,0,0,1,112.37,21.35Z"/><path class="cls-6" d="M113.72,23.92a5.33,5.33,0,0,0,.16-1.19l-1.35,1.35A4.38,4.38,0,0,0,113.72,23.92Z"/><path class="cls-6" d="M107.87,18.08a4.72,4.72,0,0,0-.16,1.18l1.34-1.34A4.36,4.36,0,0,0,107.87,18.08Z"/><path class="cls-6" d="M111.6,21.16a2.14,2.14,0,0,1-.56-.4,2,2,0,0,1-.4-.57l-2,2a4.29,4.29,0,0,0,.45.52,5.47,5.47,0,0,0,.51.45Z"/><path class="cls-5" d="M107.87,18.08a4.76,4.76,0,0,0-3.54,4.56l3.38-3.38A4.72,4.72,0,0,1,107.87,18.08Z"/><path class="cls-5" d="M109.16,27.46a4.79,4.79,0,0,0,3.32-1.4,4.72,4.72,0,0,0,1.24-2.14,4.38,4.38,0,0,1-1.19.16Z"/><path class="cls-5" d="M107.66,21.24A2.33,2.33,0,0,1,108,21a4,4,0,0,1-.22-.82l-3.38,3.38a5,5,0,0,0,.5,1.43l2.16-2.16A2.07,2.07,0,0,1,107.66,21.24Z"/><path class="cls-5" d="M110.83,23.79a1.81,1.81,0,0,1-.28.34,2,2,0,0,1-1.55.6l-2.16,2.16a4.58,4.58,0,0,0,1.43.49L111.64,24A4.4,4.4,0,0,1,110.83,23.79Z"/><path class="cls-5" d="M107.66,24.13a2.14,2.14,0,0,1-.4-.56l-2,2a5.47,5.47,0,0,0,.45.51,3.65,3.65,0,0,0,.52.45l2-2A2,2,0,0,1,107.66,24.13Z"/></g></g></svg>